<svg xmlns="http://www.w3.org/2000/svg" viewBox="0 0 160 100" fill="none">
  <rect width="160" height="100" rx="12" fill="white" stroke="#E0E0E0" stroke-width="1"/>
  <!-- Google G Logo -->
  <path d="M52.2 50.8c0-1.5-.13-2.9-.36-4.28H40v8.1h6.85a5.86 5.86 0 01-2.54 3.84v3.19h4.12c2.4-2.22 3.79-5.48 3.79-10.85z" fill="#4285F4"/>
  <path d="M40 61.5c3.44 0 6.33-1.14 8.44-3.09l-4.12-3.19c-1.14.76-2.6 1.21-4.32 1.21-3.33 0-6.15-2.25-7.16-5.27H28.6v3.29A12.73 12.73 0 0040 61.5z" fill="#34A853"/>
  <path d="M32.84 51.16a7.64 7.64 0 010-4.87v-3.29H28.6a12.73 12.73 0 000 11.45l4.24-3.29z" fill="#FBBC05"/>
  <path d="M40 38.44c1.88 0 3.56.65 4.89 1.92l3.67-3.67A12.53 12.53 0 0040 33.5a12.73 12.73 0 00-11.4 7.05l4.24 3.29c1.01-3.02 3.83-5.4 7.16-5.4z" fill="#EA4335"/>
  <!-- Pay text -->
  <text x="60" y="55" font-family="'Product Sans',Arial,sans-serif" font-size="28" font-weight="500" fill="#5F6368">Pay</text>
</svg>
