<svg xmlns="http://www.w3.org/2000/svg" viewBox="0 0 160 100" fill="none">
  <rect width="160" height="100" rx="12" fill="white" stroke="#E0E0E0" stroke-width="1"/>
  <!-- VISA Logo -->
  <path d="M67.2 63H61.5L65.1 37h5.7L67.2 63z" fill="#1A1F71"/>
  <path d="M91.8 37.7a14.1 14.1 0 00-5.1-.9c-5.6 0-9.5 3-9.5 7.2 0 3.1 2.8 4.9 5 5.9 2.2 1.1 2.9 1.8 2.9 2.7 0 1.5-1.7 2.1-3.3 2.1-2.2 0-3.4-.3-5.2-1.1l-.7-.3-.8 4.8c1.3.6 3.7 1.1 6.2 1.1 6 0 9.8-2.9 9.8-7.4 0-2.5-1.5-4.4-4.8-5.9-2-.9-3.2-1.6-3.2-2.6 0-.9 1-1.8 3.2-1.8a9.6 9.6 0 014.2.8l.5.2.8-4.8z" fill="#1A1F71"/>
  <path d="M101.3 37h-4.4c-1.4 0-2.4.4-3 1.8L84.8 63h6l1.2-3.3h7.3l.7 3.3h5.3L101.3 37zm-7.5 19.5l3-8.1 1.7 8.1h-4.7z" fill="#1A1F71"/>
  <path d="M57.3 37L51.7 54.4l-.6-3.1c-1-3.5-4.3-7.3-7.9-9.2l5.1 20.8h6L63.3 37h-6z" fill="#1A1F71"/>
  <path d="M47.4 37H38.2l-.1.5c7.1 1.8 11.8 6.2 13.8 11.5l-2-10c-.3-1.4-1.3-1.8-2.5-2z" fill="#F7A600"/>
</svg>
